<svg id="Layer_1" data-name="Layer 1" xmlns="http://www.w3.org/2000/svg" viewBox="0 0 1000 784.33"><title>aha</title><path d="M164.06,535.7,90.4,585.92C37.67,580.9,0,538.21,0,490.5c0-34.32,19.25-60.27,50.22-81.19l66.13-46c-22.6,26-32.65,52.73-32.65,77.85C83.7,481.29,110.49,519.8,164.06,535.7Zm160.71-12.56-90.4,62.78c-29.3-5-51.06-36-51.06-72.82V313.89C149.83,299.66,102.12,263.67,67,263.67c-24.27,0-44.36,17.57-44.36,38.5,0-56.08,43.53-101.28,96.26-101.28,67.8,0,137.27,81.19,177.45,56.08l-19.25,13.39V495.52C277.06,535.7,305.52,536.54,324.77,523.14Z"/><path d="M451.07,72.82v422.7c0,40.18,27.62,41,47.71,27.62l-91.23,62.78c-28.46-5-51.06-36-51.06-72.82V90.4c0-40.18-28.46-41-47.71-27.62L400,0C428.47,5,451.07,36,451.07,72.82ZM624.34,587.59c0,58.6-13.39,108-55.25,150.67-33.48,33.48-72,46.87-82,46,46-28.46,42.68-92.91,42.68-146.48V291.29c0-39.34-39.34-31.81-78.68-6.7l122.21-83.7c28.46,5,51.06,36,51.06,72.82Z"/><path d="M839.29,535.7l-73.66,50.22c-52.73-5-90.4-47.71-90.4-95.42,0-34.32,19.25-60.27,50.22-81.19l66.13-46c-22.6,26-32.64,52.73-32.64,77.85C758.94,481.29,785.72,519.8,839.29,535.7ZM1000,523.14l-90.4,62.78c-29.3-5-51.06-36-51.06-72.82V313.89c-33.48-14.23-81.19-50.22-116.35-50.22-24.27,0-44.36,17.57-44.36,38.5,0-56.08,43.53-101.28,96.26-101.28,67.8,0,137.27,81.19,177.45,56.08l-19.25,13.39V495.52C952.29,535.7,980.75,536.54,1000,523.14Z"/></svg>