<svg id="Layer_1" data-name="Layer 1" xmlns="http://www.w3.org/2000/svg" viewBox="0 0 432.23 1000"><title>capstone_project</title><path d="M100.19,1000c-43.61,0-61.53-29.47-61.53-60.58,0-9.9,2.36-25,7.07-46.21l41.49,5.66v.24c-37.95,31.11-46.67,37.95-46.67,43.37,0,7.07,14.38,9.19,38.89,9.19,29.47,0,50.45-8.48,50.45-35.12a31.76,31.76,0,0,0-18.62-28.76l.23-.47C130.12,889.2,162,901,162,940.59,162,970.3,144,1000,100.19,1000Z"/><path d="M131.54,882.94c-29.23,0-44.32-32.29-49.74-69.07H47.85c-4,0-6.83,2.12-6.83,5.19,0,3.77,9.19,10.37,45.26,35.59v.24L51.86,876.81c-4.24-13.2-13.2-46.2-13.2-67.18,0-27.35,10.84-46.91,39.6-46.91H134.6c4.72,0,7.08-1.18,16-9.67h.24l10.84,60.59H141.44A42,42,0,0,1,162,850.17C162,865,154.64,882.94,131.54,882.94Zm7.31-69.07H83.45c9.9,11.08,25,19.57,39.6,19.57s20-6.37,20-11.08C143.09,819.06,141.44,815.52,138.85,813.87Z"/><path d="M207,999.24V743.84H71.66l-19.09,9.67h-.24L36.77,691.28H58.46c-11.08-7.78-19.8-19.1-19.8-34.66,0-19.33,13.67-46,60.35-46,50.21,0,62.94,30.65,62.94,49,0,12.49-4.95,23.1-14.62,31.35H207V677.13h1.89V999.24ZM100.19,664.64c-31.12,0-45.74,2.59-45.74,14.38a14.59,14.59,0,0,0,6.37,12H145c3.3-3.3,5.89-7.31,5.89-12C150.87,668.41,137.43,664.64,100.19,664.64Z"/><path d="M157,596.64l-46.44,3.77v-.23c42-33.95,49.5-42.91,49.5-49.51,0-7.07-4.71-13.91-14.61-13.91-8.72,0-16.27,6.6-21.22,18.62l-7.78,18.86c-5.66,13.68-16,27.35-39.84,27.35-21.21,0-37.95-19.1-37.95-45.26,0-13,1.65-31.36,3.06-42.91l40.79-3.3v.24c-34.42,32.3-42,40.07-42,46A13.21,13.21,0,0,0,54,569.53c11.08,0,16.5-10.37,21.22-21.69L81.33,533c7.31-17.44,20.51-29.94,41-29.94,22.16,0,39.6,16.5,39.6,47.86A236.41,236.41,0,0,1,157,596.64Z"/><path d="M129.65,490.21H44.08v13.2H42v-13.2H32.77L0,437.88v-.47H42V411.24h2.12v26.17h77.09c13.2,0,18.86-5.89,18.86-13.67a25.71,25.71,0,0,0-3.54-12l.47-.47c7.78,4,25,18.86,25,44.09C162,474.42,154.41,490.21,129.65,490.21Z"/><path d="M100.66,411.58c-43.85,0-62-28.76-62-69.07,0-40.55,18.15-68.83,62-68.83C144,273.68,162,302.2,162,342.51S144,411.58,100.66,411.58Zm0-82.27c-47.15,0-60.11,4-60.11,13.2,0,9.43,13,13.44,60.11,13.44,46.91,0,59.4-4,59.4-13.44C160.06,333.32,147.57,329.31,100.66,329.31Z"/><path d="M157.23,270.74v-9.9H71.66L52.57,270.5h-.24L36.77,208H63.41C49,199.31,38.66,184.7,38.66,168.19c0-10.13,2.12-37.48,39.13-37.48h79.44v-9.9h1.89v72.61h-1.89v-9.9H76.85c-12.26,0-17.68,6.12-17.68,13,0,4.48,1.65,8,7.07,11.55h91v-9.9h1.89v72.61Z"/><path d="M100.19,118.86c-44.32,0-61.53-29.46-61.53-61.29C38.66,22,59.88.76,92.17.76h.24v70c27.81-1.65,36.77-20,36.77-33.47,0-13.67-5-28.29-17.68-36.54l.24-.47c25,3.77,50.21,20,50.21,55.63C162,89.4,142.15,118.86,100.19,118.86ZM90.52,47.43c-33.47,0-50,2.36-50,11.32,0,10.14,17,12,50,12Z"/><path d="M210.88,0V209.13H346.19l19.09-9.66h.24l15.56,62.23H359.39c11.08,7.78,19.8,19.1,19.8,34.66,0,19.33-13.67,46-60.35,46-50.21,0-62.94-30.65-62.94-49,0-12.49,5-23.1,14.62-31.35H210.88v13.91H209V0ZM317.66,288.34c31.12,0,45.74-2.59,45.74-14.38a14.59,14.59,0,0,0-6.37-12H272.88c-3.31,3.3-5.9,7.31-5.9,12C267,284.57,280.42,288.34,317.66,288.34Z"/><path d="M260.62,345.92v9.9H346.9l18.38-9.66h.24l15.56,62.47H355.62c10.61,5.65,23.57,14.85,23.57,31.59a31.2,31.2,0,0,1-3.06,13.2l-44.56-7.78c22.63-33.24,23.11-33.95,23.11-34.89,0-.71-.71-1.42-1.89-2.12H260.62v15.56h-1.89V345.92Z"/><path d="M317.19,454.33c43.85,0,62,28.76,62,69.07,0,40.54-18.15,68.83-62,68.83-43.37,0-61.29-28.52-61.29-68.83S273.82,454.33,317.19,454.33Zm0,82.27c47.15,0,60.12-4,60.12-13.2,0-9.43-13-13.44-60.12-13.44-46.91,0-59.4,4-59.4,13.44C257.79,532.59,270.28,536.6,317.19,536.6Z"/><path d="M209,584.3c9,16.27,21.22,21,43.38,21h93.82l19.09-9.66h.24l15.56,62.47H282.3c-53.27,0-70.48-37.25-74-73.31ZM409.36,606c12.5,0,22.87,10.85,22.87,24.75,0,13.68-10.37,24.52-22.87,24.52s-22.86-10.84-22.86-24.52C386.5,616.84,396.87,606,409.36,606Z"/><path d="M317.66,669.92c44.32,0,61.53,29.46,61.53,61.29C379.19,766.8,358,788,325.68,788h-.24V718c-27.81,1.65-36.77,20-36.77,33.48,0,13.67,4.95,28.29,17.68,36.54l-.24.47c-25-3.77-50.21-20-50.21-55.63C255.9,699.38,275.7,669.92,317.66,669.92Zm9.67,71.42c33.47,0,50-2.35,50-11.31,0-10.14-17-12-50-12Z"/><path d="M317.66,794.85c43.61,0,61.53,29.46,61.53,60.58,0,9.9-2.36,25-7.07,46.21L330.63,896v-.24c37.95-31.12,46.68-38,46.68-43.37,0-7.08-14.38-9.2-38.9-9.2-29.47,0-50.45,8.49-50.45,35.13a31.77,31.77,0,0,0,18.62,28.76l-.23.47c-18.62-1.89-50.45-13.68-50.45-53.28C255.9,824.55,273.82,794.85,317.66,794.85Z"/><path d="M288.2,921h85.57v-13.2h2.12V921h9.2l32.76,52.33v.47h-42V1000h-2.12V973.83H296.68c-13.2,0-18.85,5.9-18.85,13.68a25.7,25.7,0,0,0,3.53,12l-.47.47c-7.78-4-25-18.86-25-44.08C255.9,936.82,263.45,921,288.2,921Z"/></svg>