<?xml version="1.0" encoding="utf-8"?>
<!-- Generator: Adobe Illustrator 23.0.4, SVG Export Plug-In . SVG Version: 6.00 Build 0)  -->
<svg version="1.1" id="Layer_1" xmlns="http://www.w3.org/2000/svg" xmlns:xlink="http://www.w3.org/1999/xlink" x="0px" y="0px"
	 viewBox="0 0 1000 602.79" style="enable-background:new 0 0 1000 602.79;" xml:space="preserve">
<style type="text/css">
	.st0{fill:#231F20;}
</style>
<g>
	<g>
		<path class="st0" d="M75.09,338.53v-2.86H36.06l-5.51,2.79h-0.07l-4.49-17.95h6.26c-3.2-2.24-5.71-5.51-5.71-10
			c0-5.58,3.94-13.26,17.41-13.26c14.49,0,18.16,8.84,18.16,14.15c0,3.6-1.43,6.67-4.22,9.04h17.21v-4.01h0.54v22.1H75.09z
			 M44.29,312.82c-8.98,0-13.19,0.75-13.19,4.15c0,1.63,0.88,2.79,1.84,3.47h24.28c0.95-0.95,1.7-2.11,1.7-3.47
			C58.91,313.91,55.03,312.82,44.29,312.82z"/>
		<path class="st0" d="M44.42,295.14c-12.65,0-17.89-8.3-17.89-19.93c0-11.7,5.24-19.86,17.89-19.86c12.51,0,17.68,8.23,17.68,19.86
			C62.1,286.84,56.93,295.14,44.42,295.14z M44.42,271.4c-13.6,0-17.34,1.16-17.34,3.81c0,2.72,3.74,3.88,17.34,3.88
			c13.53,0,17.14-1.16,17.14-3.88C61.56,272.56,57.96,271.4,44.42,271.4z"/>
		<path class="st0" d="M60.74,254.6v-2.86H19.8l-5.92,2.79h-0.07l-3.2-18.02h50.12v-2.86h0.54v20.95H60.74z"/>
		<path class="st0" d="M17.83,229.71c-3.6,0-6.6-3.13-6.6-7.14c0-3.94,2.99-7.07,6.6-7.07s6.6,3.13,6.6,7.07
			C24.43,226.58,21.44,229.71,17.83,229.71z M60.74,232.57v-2.86H35.92l-5.37,2.79h-0.07l-4.49-18.02h34.75v-2.86h0.54v20.95H60.74z
			"/>
		<path class="st0" d="M44.29,211.08c-12.58,0-17.75-8.5-17.75-17.48c0-2.86,0.68-7.21,2.04-13.33l11.97,1.63v0.07
			c-10.95,8.98-13.47,10.95-13.47,12.51c0,2.04,4.15,2.65,11.22,2.65c8.5,0,14.55-2.45,14.55-10.13c0-4.15-2.79-7.21-5.37-8.3
			l0.07-0.14c5.37,0.54,14.55,3.94,14.55,15.37C62.1,202.51,56.93,211.08,44.29,211.08z"/>
		<path class="st0" d="M75.43,173.74l-12.79,0.54v-0.07c5.3-6.05,6.6-7.82,6.6-9.79c0-0.68-0.34-1.63-1.29-2.04l-4.76-2.24
			l-35.16,15.71v2.79h-0.54v-21.97h0.54v2.99l17.89-7.68l-17.89-8.36v7.41h-0.54v-10.95h0.54V143l40.94,19.25
			c5.64,2.65,6.8,6.39,6.8,9.11C75.77,172.58,75.57,173.33,75.43,173.74z"/>
	</g>
	<g>
		<path class="st0" d="M96.41,142.37c12.65,0,17.89,8.3,17.89,19.93c0,11.7-5.24,19.86-17.89,19.86c-12.51,0-17.68-8.23-17.68-19.86
			C78.73,150.67,83.9,142.37,96.41,142.37z M96.41,166.11c13.6,0,17.34-1.16,17.34-3.81c0-2.72-3.74-3.88-17.34-3.88
			c-13.53,0-17.14,1.16-17.14,3.88C79.27,164.95,82.88,166.11,96.41,166.11z"/>
		<path class="st0" d="M96.55,184.13c12.58,0,17.75,8.5,17.75,17.48c0,2.86-0.68,7.21-2.04,13.33l-11.97-1.63v-0.07
			c10.95-8.98,13.47-10.95,13.47-12.51c0-2.04-4.15-2.65-11.22-2.65c-8.5,0-14.55,2.45-14.55,10.13c0,4.15,2.79,7.21,5.37,8.3
			l-0.07,0.14c-5.37-0.54-14.55-3.94-14.55-15.37C78.73,192.7,83.9,184.13,96.55,184.13z"/>
		<path class="st0" d="M96.55,218.34c12.58,0,17.75,8.5,17.75,17.48c0,2.86-0.68,7.21-2.04,13.33l-11.97-1.63v-0.07
			c10.95-8.98,13.47-10.95,13.47-12.51c0-2.04-4.15-2.65-11.22-2.65c-8.5,0-14.55,2.45-14.55,10.13c0,4.15,2.79,7.21,5.37,8.3
			l-0.07,0.14c-5.37-0.54-14.55-3.94-14.55-15.37C78.73,226.91,83.9,218.34,96.55,218.34z"/>
		<path class="st0" d="M90.02,254.18h22.78v-2.86h0.54v18.09h-23.6c-3.54,0-5.1,1.77-5.1,3.74c0,1.29,0.48,2.31,2.04,3.33h26.11
			v-2.86h0.54v18.09H80.09v2.86h-0.54v-17.95h6.53c-4.22-2.52-7.34-6.8-7.34-11.63C78.73,262.07,79.34,254.18,90.02,254.18z"/>
		<path class="st0" d="M80.09,295.74v2.86h40.94l5.92-2.79h0.07l3.2,18.02H80.09v2.86h-0.54v-20.95H80.09z"/>
		<path class="st0" d="M88.05,319.61h24.69v-3.81h0.61v3.81H116l9.45,15.1v0.14h-12.11v7.55h-0.61v-7.55H90.5
			c-3.81,0-5.44,1.7-5.44,3.94c0,1.16,0.48,2.58,1.02,3.47l-0.14,0.14c-2.24-1.16-7.21-5.44-7.21-12.72
			C78.73,324.16,80.91,319.61,88.05,319.61z"/>
		<path class="st0" d="M80.09,342.12v2.86h24.82l5.37-2.79h0.07l4.49,18.02H80.09v2.86h-0.54v-20.95H80.09z M123,344.98
			c3.6,0,6.6,3.13,6.6,7.14c0,3.94-2.99,7.07-6.6,7.07c-3.6,0-6.6-3.13-6.6-7.07C116.41,348.1,119.4,344.98,123,344.98z"/>
		<path class="st0" d="M80.16,365.99l13.4-1.09v0.07c-12.1,9.79-14.28,12.38-14.28,14.28c0,2.04,1.36,4.01,4.22,4.01
			c2.52,0,4.69-1.9,6.12-5.37l2.24-5.44c1.63-3.94,4.62-7.89,11.49-7.89c6.12,0,10.95,5.51,10.95,13.06c0,3.74-0.48,9.04-0.88,12.38
			l-11.77,0.95v-0.07c9.93-9.32,12.11-11.56,12.11-13.26c0-1.84-1.43-3.81-3.88-3.81c-3.2,0-4.76,2.99-6.12,6.26l-1.77,4.28
			c-2.11,5.03-5.92,8.64-11.83,8.64c-6.39,0-11.43-4.76-11.43-13.8C78.73,374.63,79.41,369.46,80.16,365.99z"/>
		<path class="st0" d="M80.09,394.14V397h24.69l5.51-2.79h0.07l4.49,18.02h-8.5c4.49,2.31,7.96,6.6,7.96,11.43
			c0,2.31-0.48,8.91-8.43,10.2c4.76,2.24,8.43,6.66,8.43,11.63c0,2.58-0.61,10.41-11.29,10.41H80.09v2.86h-0.54v-20.74h0.54v2.65
			h23.12c3.4,0,4.9-1.16,4.9-2.92c0-1.29-0.88-2.72-2.99-3.67H80.09v2.65h-0.54v-20.54h0.54v2.65h23.12c3.4,0,4.9-1.16,4.9-2.92
			c0-1.22-0.82-2.58-2.79-3.67H80.09v2.65h-0.54v-20.74H80.09z"/>
	</g>
</g>
<g>
	<g>
		<path class="st0" d="M276.2,452.55v-2.86h-24.69l-5.51,2.79h-0.07l-4.49-18.02h8.5c-4.49-2.31-7.96-6.6-7.96-11.43
			c0-2.31,0.48-8.91,8.43-10.2c-4.76-2.24-8.43-6.66-8.43-11.63c0-2.58,0.61-10.41,11.29-10.41h22.92v-2.86h0.54v20.74h-0.54v-2.65
			h-23.12c-3.4,0-4.9,1.16-4.9,2.92c0,1.29,0.88,2.72,2.99,3.67h25.03v-2.65h0.54v20.54h-0.54v-2.65h-23.12
			c-3.4,0-4.9,1.16-4.9,2.92c0,1.22,0.82,2.58,2.79,3.67h25.23v-2.65h0.54v20.74H276.2z"/>
		<path class="st0" d="M266.27,385.42h-22.78v2.86h-0.54v-18.09h23.6c3.54,0,5.1-1.77,5.1-3.74c0-1.29-0.48-2.31-2.04-3.33h-26.11
			v2.86h-0.54v-18.09h33.26v-2.86h0.54v17.95h-6.53c4.22,2.52,7.35,6.8,7.35,11.63C277.56,377.53,276.95,385.42,266.27,385.42z"/>
		<path class="st0" d="M276.13,342.03l-13.4,1.09v-0.07c12.11-9.79,14.28-12.38,14.28-14.28c0-2.04-1.36-4.01-4.22-4.01
			c-2.52,0-4.69,1.9-6.12,5.37l-2.24,5.44c-1.63,3.94-4.62,7.89-11.49,7.89c-6.12,0-10.95-5.51-10.95-13.06
			c0-3.74,0.48-9.04,0.88-12.38l11.77-0.95v0.07c-9.93,9.32-12.11,11.56-12.11,13.26c0,1.84,1.43,3.81,3.88,3.81
			c3.2,0,4.76-2.99,6.12-6.26l1.77-4.28c2.11-5.03,5.92-8.64,11.83-8.64c6.39,0,11.43,4.76,11.43,13.81
			C277.56,333.39,276.88,338.56,276.13,342.03z"/>
		<path class="st0" d="M233.29,311.09c-3.6,0-6.6-3.13-6.6-7.14c0-3.94,2.99-7.07,6.6-7.07c3.6,0,6.6,3.13,6.6,7.07
			C239.88,307.96,236.89,311.09,233.29,311.09z M276.2,313.94v-2.86h-24.82l-5.37,2.79h-0.07l-4.49-18.02h34.75V293h0.54v20.95
			H276.2z"/>
		<path class="st0" d="M259.74,292.45c-12.58,0-17.75-8.5-17.75-17.48c0-2.86,0.68-7.21,2.04-13.33l11.97,1.63v0.07
			c-10.95,8.98-13.47,10.95-13.47,12.51c0,2.04,4.15,2.65,11.22,2.65c8.5,0,14.55-2.45,14.55-10.13c0-4.15-2.79-7.21-5.37-8.3
			l0.07-0.14c5.37,0.54,14.55,3.95,14.55,15.37C277.56,283.88,272.39,292.45,259.74,292.45z"/>
	</g>
	<g>
		<path class="st0" d="M295.55,147.39v2.86h40.94l5.92-2.79h0.07l3.2,18.02h-50.12v2.86H295v-20.95H295.55z"/>
		<path class="st0" d="M311.87,168.88c12.65,0,17.89,8.3,17.89,19.93c0,11.7-5.24,19.86-17.89,19.86
			c-12.51,0-17.68-8.23-17.68-19.86C294.19,177.17,299.35,168.88,311.87,168.88z M311.87,192.61c13.6,0,17.34-1.16,17.34-3.81
			c0-2.72-3.74-3.88-17.34-3.88c-13.53,0-17.14,1.16-17.14,3.88C294.73,191.46,298.33,192.61,311.87,192.61z"/>
		<path class="st0" d="M285.41,209.68c3.26,0,5.24,7.41,5.37,10.34c0.2-7.14,3.2-9.79,6.66-9.79c4.15,0,6.46,3.88,9.79,10.75
			c1.09-6.26,4.35-10.41,10.95-10.41c8.98,0,11.56,7.68,11.56,17.27v2.18l7.01,15.37v0.07l-9.32-1.9l2.04-13.4
			c-1.97,7.28-5.3,14.28-12.04,14.28c-7.21,0-10.81-6.12-10.81-16.8c0-2.38,0.14-4.42,0.48-6.19c-1.22-1.43-1.77-2.04-2.45-2.04
			c-0.61,0-1.22,0.54-1.22,1.5c0,0.75,0.34,11.15,0.34,13.53c0,6.05-2.38,12.72-9.86,12.72c-10.81,0-13.47-14.49-13.47-21.01
			C280.45,218.32,281.88,209.68,285.41,209.68z M287.66,236.21c1.63,0,3.47-0.82,3.47-4.56c0-1.5-0.27-8.57-0.27-11.09
			c-1.29-1.16-2.72-1.5-3.74-1.5c-4.76,0-6.12,4.35-6.12,7.68C280.99,231.58,283.17,236.21,287.66,236.21z M318.26,230.97
			c7.89,0,11.02-0.88,11.02-3.2c0-2.45-3.47-3.33-10.95-3.33c-7.62,0-11.22,0.88-11.22,3.33
			C307.11,230.15,310.51,230.97,318.26,230.97z"/>
		<path class="st0" d="M311.87,247.29c12.65,0,17.89,8.3,17.89,19.93c0,11.7-5.24,19.86-17.89,19.86
			c-12.51,0-17.68-8.23-17.68-19.86C294.19,255.59,299.35,247.29,311.87,247.29z M311.87,271.03c13.6,0,17.34-1.16,17.34-3.81
			c0-2.72-3.74-3.88-17.34-3.88c-13.53,0-17.14,1.16-17.14,3.88C294.73,269.87,298.33,271.03,311.87,271.03z"/>
		<path class="st0" d="M281.2,287.76v2.86h39.04l5.51-2.79h0.07l4.49,17.95h-6.26c3.2,2.24,5.71,5.51,5.71,10
			c0,5.58-3.94,13.26-17.41,13.26c-14.49,0-18.16-8.84-18.16-14.15c0-3.6,1.43-6.66,4.22-9.04H281.2v4.01h-0.54v-22.1H281.2z
			 M312,313.47c8.98,0,13.19-0.75,13.19-4.15c0-1.63-0.88-2.79-1.84-3.47h-24.28c-0.95,0.95-1.7,2.11-1.7,3.47
			C297.38,312.38,301.26,313.47,312,313.47z"/>
		<path class="st0" d="M295.55,329.92v2.86h40.8l6.05-2.79h0.07l3.2,18.02h-23.05c4.15,2.52,7.14,6.73,7.14,11.49
			c0,2.92-0.61,10.81-11.29,10.81h-22.92v2.86H295v-20.95h0.54v2.86h23.19c3.54,0,5.1-1.77,5.1-3.74c0-1.29-0.48-2.31-2.04-3.33
			h-26.25v2.86H295v-20.95H295.55z"/>
		<path class="st0" d="M295.55,374.33v2.86h24.82l5.37-2.79h0.07l4.49,18.02h-34.75v2.86H295v-20.95H295.55z M338.46,377.19
			c3.6,0,6.6,3.13,6.6,7.14c0,3.94-2.99,7.07-6.6,7.07c-3.6,0-6.6-3.13-6.6-7.07C331.86,380.32,334.85,377.19,338.46,377.19z"/>
		<path class="st0" d="M295.55,396.37v2.86h40.94l5.92-2.79h0.07l3.2,18.02h-50.12v2.86H295v-20.95H295.55z"/>
		<path class="st0" d="M312,417.86c12.79,0,17.75,8.5,17.75,17.68c0,10.27-6.12,16.39-15.44,16.39h-0.07v-20.2
			c-8.02,0.48-10.61,5.78-10.61,9.66c0,3.95,1.43,8.16,5.1,10.54l-0.07,0.14c-7.21-1.09-14.49-5.78-14.49-16.05
			C294.19,426.36,299.9,417.86,312,417.86z M314.79,438.47c9.66,0,14.42-0.68,14.42-3.26c0-2.92-4.9-3.47-14.42-3.47V438.47z"/>
	</g>
</g>
<g>
	<g>
		<path class="st0" d="M707.11,386.91v-5.1h-34.48l-5.1,5.51h-0.07l-8.43-20.61h48.08v-5.1h0.54v25.3H707.11z"/>
		<path class="st0" d="M695.96,360.52c-6.32,0-8.91-5.37-9.32-11.56l-0.27,0.41c-3.4,5.1-8.02,9.25-14.15,9.25
			c-8.77,0-13.19-7-13.19-17.34c0-9.86,4.28-16.93,10.2-16.93c5.64,0,8.3,6.19,8.57,10.54l1.77-2.86c1.97-3.2,6.6-10.13,14.89-10.13
			c8.36,0,14.15,7.41,14.15,19.25C708.61,351.81,704.46,360.52,695.96,360.52z M669.09,334.07c-6.66,0-9.52,3.26-9.52,6.53
			c0,3.33,2.92,5.03,6.26,5.03c5.3,0,7.96-3.88,10-7.34l1.77-2.99C675.35,334.2,673.11,334.07,669.09,334.07z M701.67,334.47
			c-6.12,0-10.2,6.32-11.63,8.7l-3.2,5.3c1.09,0.61,3.88,1.36,7.96,1.36c10.27,0,13.26-4.63,13.26-8.77
			C708.06,337.19,705.34,334.47,701.67,334.47z"/>
		<path class="st0" d="M683.78,318.97c-16.87,0-24.75-11.83-24.75-21.83c0-9.79,7.68-21.69,24.75-21.69
			c17.61,0,24.82,12.11,24.82,21.69C708.61,306.93,701.4,318.97,683.78,318.97z M683.78,291.83c-19.04,0-24.21,2.11-24.21,5.3
			c0,3.47,5.3,5.3,24.21,5.3c19.86,0,24.28-1.97,24.28-5.1C708.06,293.87,703.5,291.83,683.78,291.83z"/>
		<path class="st0" d="M667.26,272.52c-5.37,0-9.45-4.35-9.45-9.59c0-5.1,4.08-9.45,9.45-9.45c5.3,0,9.39,4.35,9.39,9.45
			C676.64,268.16,672.56,272.52,667.26,272.52z M667.26,253.95c-5.1,0-8.98,4.08-8.98,8.98c0,4.96,3.88,9.11,8.98,9.11
			c4.9,0,8.91-4.01,8.91-9.11C676.17,257.89,672.09,253.95,667.26,253.95z"/>
		<path class="st0" d="M689.22,252.11v-32.3h0.88v32.3H689.22z"/>
		<path class="st0" d="M706.57,218.79l-11.7-9.52c-7.89-6.46-14.62-10.34-25.91-10.34c-7.82,0-9.39,0.95-9.39,2.58
			c0,1.36,3.54,4.49,19.65,15.64v0.07l-17.75-1.5c-1.36-4.35-2.45-10.61-2.45-14.42c0-7,1.9-17.21,12.58-17.21
			c11.22,0,17.95,13.47,22.58,24.01V182.2l13.47,4.69v31.89H706.57z"/>
		<path class="st0" d="M707.11,180.3v-5.1h-34.48l-5.1,5.51h-0.07l-8.43-20.61h48.08V155h0.54v25.3H707.11z"/>
		<path class="st0" d="M683.78,153.91c-16.87,0-24.75-11.83-24.75-21.83c0-9.79,7.68-21.69,24.75-21.69
			c17.61,0,24.82,12.11,24.82,21.69C708.61,141.87,701.4,153.91,683.78,153.91z M683.78,126.77c-19.04,0-24.21,2.11-24.21,5.3
			c0,3.47,5.3,5.3,24.21,5.3c19.86,0,24.28-1.97,24.28-5.1C708.06,128.82,703.5,126.77,683.78,126.77z"/>
		<path class="st0" d="M667.26,107.39c-5.37,0-9.45-4.35-9.45-9.59c0-5.1,4.08-9.45,9.45-9.45c5.3,0,9.39,4.35,9.39,9.45
			C676.64,103.04,672.56,107.39,667.26,107.39z M667.26,88.82c-5.1,0-8.98,4.08-8.98,8.98c0,4.96,3.88,9.11,8.98,9.11
			c4.9,0,8.91-4.01,8.91-9.11C676.17,92.77,672.09,88.82,667.26,88.82z"/>
	</g>
	<g>
		<path class="st0" d="M742.91,6.32c12.58,0,17.75,8.5,17.75,17.48c0,2.86-0.68,7.21-2.04,13.33l-11.97-1.63v-0.07
			c10.95-8.98,13.47-10.95,13.47-12.51c0-2.04-4.15-2.65-11.22-2.65c-8.5,0-14.55,2.45-14.55,10.13c0,4.15,2.79,7.21,5.37,8.3
			l-0.07,0.14c-5.37-0.54-14.55-3.95-14.55-15.37C725.1,14.89,730.27,6.32,742.91,6.32z"/>
		<path class="st0" d="M742.91,40.53c12.79,0,17.75,8.5,17.75,17.68c0,10.27-6.12,16.39-15.44,16.39h-0.07V54.4
			c-8.02,0.48-10.61,5.78-10.61,9.66c0,3.95,1.43,8.16,5.1,10.54l-0.07,0.14c-7.21-1.09-14.49-5.78-14.49-16.05
			C725.1,49.03,730.81,40.53,742.91,40.53z M745.7,61.14c9.66,0,14.42-0.68,14.42-3.26c0-2.92-4.9-3.47-14.42-3.47V61.14z"/>
		<path class="st0" d="M726.46,75.55v2.86h40.94l5.92-2.79h0.07l3.2,18.02h-50.12v2.86h-0.54V75.55H726.46z"/>
		<path class="st0" d="M742.91,97.05c12.79,0,17.75,8.5,17.75,17.68c0,10.27-6.12,16.39-15.44,16.39h-0.07v-20.2
			c-8.02,0.48-10.61,5.78-10.61,9.66c0,3.95,1.43,8.16,5.1,10.54l-0.07,0.14c-7.21-1.09-14.49-5.78-14.49-16.05
			C725.1,105.55,730.81,97.05,742.91,97.05z M745.7,117.65c9.66,0,14.42-0.68,14.42-3.26c0-2.92-4.9-3.47-14.42-3.47V117.65z"/>
		<path class="st0" d="M726.52,135.13l13.4-1.09v0.07c-12.11,9.79-14.28,12.38-14.28,14.28c0,2.04,1.36,4.01,4.22,4.01
			c2.52,0,4.69-1.9,6.12-5.37l2.24-5.44c1.63-3.95,4.62-7.89,11.49-7.89c6.12,0,10.95,5.51,10.95,13.06c0,3.74-0.48,9.04-0.88,12.38
			l-11.77,0.95v-0.07c9.93-9.32,12.11-11.56,12.11-13.26c0-1.84-1.43-3.81-3.88-3.81c-3.2,0-4.76,2.99-6.12,6.26l-1.77,4.28
			c-2.11,5.03-5.92,8.64-11.83,8.64c-6.39,0-11.43-4.76-11.43-13.81C725.1,143.77,725.78,138.6,726.52,135.13z"/>
		<path class="st0" d="M734.41,165.87h24.69v-3.81h0.61v3.81h2.65l9.45,15.1v0.14h-12.11v7.55h-0.61v-7.55h-22.24
			c-3.81,0-5.44,1.7-5.44,3.94c0,1.16,0.48,2.58,1.02,3.47l-0.14,0.14c-2.24-1.16-7.21-5.44-7.21-12.72
			C725.1,170.43,727.27,165.87,734.41,165.87z"/>
		<path class="st0" d="M726.46,188.38v2.86h24.82l5.37-2.79h0.07l4.49,18.02h-34.75v2.86h-0.54v-20.95H726.46z M769.37,191.24
			c3.61,0,6.6,3.13,6.6,7.14c0,3.94-2.99,7.07-6.6,7.07c-3.6,0-6.6-3.13-6.6-7.07C762.77,194.37,765.76,191.24,769.37,191.24z"/>
		<path class="st0" d="M733.87,209.53c8.43,0,12.79,9.32,14.35,19.93h9.79c1.16,0,1.97-0.61,1.97-1.5c0-1.09-2.65-2.99-13.06-10.27
			v-0.07l9.93-6.33c1.22,3.81,3.81,13.33,3.81,19.38c0,7.89-3.13,13.53-11.42,13.53h-16.25c-1.36,0-2.04,0.34-4.63,2.79h-0.07
			l-3.13-17.48h5.85c-3.4-2.04-5.92-5.78-5.92-10.54C725.1,214.7,727.2,209.53,733.87,209.53z M731.76,229.46h15.98
			c-2.86-3.2-7.21-5.64-11.43-5.64s-5.78,1.84-5.78,3.2C730.54,227.96,731.01,228.98,731.76,229.46z"/>
		<path class="st0" d="M726.46,247.48v2.86h40.94l5.92-2.79h0.07l3.2,18.02h-50.12v2.86h-0.54v-20.95H726.46z"/>
		<path class="st0" d="M726.46,281.48v2.86h40.94l5.92-2.79h0.07l3.2,18.02h-50.12v2.86h-0.54v-20.95H726.46z"/>
		<path class="st0" d="M742.78,302.98c12.65,0,17.89,8.3,17.89,19.93c0,11.7-5.24,19.86-17.89,19.86
			c-12.51,0-17.68-8.23-17.68-19.86C725.1,311.27,730.27,302.98,742.78,302.98z M742.78,326.71c13.6,0,17.34-1.16,17.34-3.81
			c0-2.72-3.74-3.88-17.34-3.88c-13.53,0-17.14,1.16-17.14,3.88C725.64,325.55,729.24,326.71,742.78,326.71z"/>
		<path class="st0" d="M726.46,343.64v2.86h24.69l5.51-2.79h0.07l4.49,18.02h-7.68c4.15,2.52,7.14,6.73,7.14,11.49
			c0,2.92-0.61,10.81-11.29,10.81h-22.92v2.86h-0.54v-20.95h0.54v2.86h23.19c3.54,0,5.1-1.77,5.1-3.74c0-1.29-0.48-2.31-2.04-3.33
			h-26.25v2.86h-0.54v-20.95H726.46z"/>
		<path class="st0" d="M716.32,387.78c3.26,0,5.24,7.41,5.37,10.34c0.2-7.14,3.2-9.79,6.66-9.79c4.15,0,6.46,3.88,9.79,10.75
			c1.09-6.26,4.35-10.41,10.95-10.41c8.98,0,11.56,7.68,11.56,17.27v2.18l7.01,15.37v0.07l-9.32-1.9l2.04-13.4
			c-1.97,7.28-5.3,14.28-12.04,14.28c-7.21,0-10.81-6.12-10.81-16.8c0-2.38,0.14-4.42,0.48-6.19c-1.22-1.43-1.77-2.04-2.45-2.04
			c-0.61,0-1.22,0.54-1.22,1.5c0,0.75,0.34,11.15,0.34,13.53c0,6.05-2.38,12.72-9.86,12.72c-10.81,0-13.46-14.49-13.46-21.01
			C711.36,396.42,712.79,387.78,716.32,387.78z M718.57,414.31c1.63,0,3.47-0.82,3.47-4.56c0-1.5-0.27-8.57-0.27-11.09
			c-1.29-1.16-2.72-1.5-3.74-1.5c-4.76,0-6.12,4.35-6.12,7.68C711.9,409.68,714.08,414.31,718.57,414.31z M749.17,409.07
			c7.89,0,11.02-0.88,11.02-3.2c0-2.45-3.47-3.33-10.95-3.33c-7.62,0-11.22,0.88-11.22,3.33
			C738.02,408.25,741.42,409.07,749.17,409.07z"/>
		<path class="st0" d="M726.46,426.62v2.86h24.82l5.37-2.79h0.07l4.49,18.02h-34.75v2.86h-0.54v-20.95H726.46z M769.37,429.47
			c3.61,0,6.6,3.13,6.6,7.14c0,3.94-2.99,7.07-6.6,7.07c-3.6,0-6.6-3.13-6.6-7.07C762.77,432.6,765.76,429.47,769.37,429.47z"/>
		<path class="st0" d="M734.41,450.49h24.69v-3.81h0.61v3.81h2.65l9.45,15.1v0.14h-12.11v7.55h-0.61v-7.55h-22.24
			c-3.81,0-5.44,1.7-5.44,3.94c0,1.16,0.48,2.58,1.02,3.47l-0.14,0.14c-2.24-1.16-7.21-5.44-7.21-12.72
			C725.1,455.04,727.27,450.49,734.41,450.49z"/>
		<path class="st0" d="M736.39,476.88h22.78v-2.86h0.54v18.09h-23.6c-3.54,0-5.1,1.77-5.1,3.74c0,1.29,0.48,2.31,2.04,3.33h26.11
			v-2.86h0.54v18.09h-33.26v2.86h-0.54v-17.95h6.53c-4.22-2.52-7.34-6.8-7.34-11.63C725.1,484.76,725.71,476.88,736.39,476.88z"/>
		<path class="st0" d="M726.46,559.3h-0.54v-18.02h4.83c-3.2-2.24-5.64-5.51-5.64-9.93c0-5.58,3.94-13.26,17.41-13.26
			c14.49,0,18.16,8.84,18.16,14.14c0,3.61-1.43,6.6-4.15,8.98h10.88l5.92-2.79h0.07l3.2,18.02h-50.12V559.3z M755.84,541.21
			c0.95-0.95,1.63-2.11,1.63-3.4c0-3.06-3.88-4.15-14.62-4.15c-8.98,0-13.19,0.75-13.19,4.15c0,1.56,0.95,2.65,1.7,3.4H755.84z"/>
		<path class="st0" d="M742.91,559.91c12.79,0,17.75,8.5,17.75,17.68c0,10.27-6.12,16.39-15.44,16.39h-0.07v-20.2
			c-8.02,0.48-10.61,5.78-10.61,9.66c0,3.95,1.43,8.16,5.1,10.54l-0.07,0.14c-7.21-1.09-14.49-5.78-14.49-16.05
			C725.1,568.41,730.81,559.91,742.91,559.91z M745.7,580.52c9.66,0,14.42-0.68,14.42-3.26c0-2.92-4.9-3.47-14.42-3.47V580.52z"/>
	</g>
</g>
<g>
	<g>
		<path class="st0" d="M958.37,74.53c12.79,0,17.75,8.5,17.75,17.68c0,10.27-6.12,16.39-15.44,16.39h-0.07v-20.2
			c-8.02,0.48-10.61,5.78-10.61,9.66c0,3.95,1.43,8.16,5.1,10.54l-0.07,0.14c-7.21-1.09-14.49-5.78-14.49-16.05
			C940.55,83.04,946.26,74.53,958.37,74.53z M961.16,95.14c9.66,0,14.42-0.68,14.42-3.26c0-2.92-4.9-3.47-14.42-3.47V95.14z"/>
		<path class="st0" d="M941.91,106.43v5.17l12.58,9.11l20.13-11.29v-2.92h0.54v23.05h-0.54v-2.79l-11.02,5.71l11.02,8.3v-5.71h0.54
			v11.56h-0.54v-5.17l-11.56-8.7l-21.15,11.63v2.92h-0.54v-22.71h0.54v2.79l11.97-6.39l-11.97-8.7v5.71h-0.54v-11.56H941.91z"/>
		<path class="st0" d="M941.91,148.12v2.86h24.82l5.37-2.79h0.07l4.49,18.02h-34.75v2.86h-0.54v-20.95H941.91z M984.82,150.98
			c3.61,0,6.6,3.13,6.6,7.14c0,3.94-2.99,7.07-6.6,7.07c-3.6,0-6.6-3.13-6.6-7.07C978.23,154.11,981.22,150.98,984.82,150.98z"/>
		<path class="st0" d="M941.98,171.99l13.4-1.09v0.07c-12.11,9.79-14.28,12.38-14.28,14.28c0,2.04,1.36,4.01,4.22,4.01
			c2.52,0,4.69-1.9,6.12-5.37l2.24-5.44c1.63-3.95,4.62-7.89,11.49-7.89c6.12,0,10.95,5.51,10.95,13.06c0,3.74-0.48,9.04-0.88,12.38
			l-11.77,0.95v-0.07c9.93-9.32,12.11-11.56,12.11-13.26c0-1.84-1.43-3.81-3.88-3.81c-3.2,0-4.76,2.99-6.12,6.26l-1.77,4.28
			c-2.11,5.03-5.92,8.64-11.83,8.64c-6.39,0-11.43-4.76-11.43-13.81C940.55,180.63,941.23,175.46,941.98,171.99z"/>
		<path class="st0" d="M949.87,202.73h24.69v-3.81h0.61v3.81h2.65l9.45,15.1v0.14h-12.11v7.55h-0.61v-7.55h-22.24
			c-3.81,0-5.44,1.7-5.44,3.94c0,1.16,0.48,2.58,1.02,3.47l-0.14,0.14c-2.24-1.16-7.21-5.44-7.21-12.72
			C940.55,207.29,942.73,202.73,949.87,202.73z"/>
		<path class="st0" d="M958.37,225.38c12.79,0,17.75,8.5,17.75,17.68c0,10.27-6.12,16.39-15.44,16.39h-0.07v-20.2
			c-8.02,0.48-10.61,5.78-10.61,9.66c0,3.95,1.43,8.16,5.1,10.54l-0.07,0.14c-7.21-1.09-14.49-5.78-14.49-16.05
			C940.55,233.88,946.26,225.38,958.37,225.38z M961.16,245.98c9.66,0,14.42-0.68,14.42-3.26c0-2.92-4.9-3.47-14.42-3.47V245.98z"/>
		<path class="st0" d="M941.91,260.61v2.86h24.69l5.51-2.79h0.07l4.49,18.02h-7.68c4.15,2.52,7.14,6.73,7.14,11.49
			c0,2.92-0.61,10.81-11.29,10.81h-22.92v2.86h-0.54v-20.95h0.54v2.86h23.19c3.54,0,5.1-1.77,5.1-3.74c0-1.29-0.48-2.31-2.04-3.33
			h-26.25v2.86h-0.54v-20.95H941.91z"/>
		<path class="st0" d="M949.87,306.45h24.69v-3.81h0.61v3.81h2.65l9.45,15.1v0.14h-12.11v7.55h-0.61v-7.55h-22.24
			c-3.81,0-5.44,1.7-5.44,3.94c0,1.16,0.48,2.58,1.02,3.47l-0.14,0.14c-2.24-1.16-7.21-5.44-7.21-12.72
			C940.55,311,942.73,306.45,949.87,306.45z"/>
		<path class="st0" d="M941.91,328.96v2.86h24.82l5.37-2.79h0.07l4.49,18.02h-34.75v2.86h-0.54v-20.95H941.91z M984.82,331.81
			c3.61,0,6.6,3.13,6.6,7.14c0,3.94-2.99,7.07-6.6,7.07c-3.6,0-6.6-3.13-6.6-7.07C978.23,334.94,981.22,331.81,984.82,331.81z"/>
		<path class="st0" d="M949.32,350.11c8.43,0,12.79,9.32,14.35,19.93h9.79c1.16,0,1.97-0.61,1.97-1.5c0-1.09-2.65-2.99-13.06-10.27
			v-0.07l9.93-6.33c1.22,3.81,3.81,13.33,3.81,19.38c0,7.89-3.13,13.53-11.42,13.53h-16.25c-1.36,0-2.04,0.34-4.63,2.79h-0.07
			l-3.13-17.48h5.85c-3.4-2.04-5.92-5.78-5.92-10.54C940.55,355.28,942.66,350.11,949.32,350.11z M947.22,370.03h15.98
			c-2.86-3.2-7.21-5.64-11.43-5.64s-5.78,1.84-5.78,3.2C945.99,368.54,946.47,369.56,947.22,370.03z"/>
		<path class="st0" d="M941.91,388.06v2.86h40.94l5.92-2.79h0.07l3.2,18.02h-50.12V409h-0.54v-20.95H941.91z"/>
		<path class="st0" d="M941.91,410.09v2.86h24.82l5.37-2.79h0.07l4.49,18.02h-34.75v2.86h-0.54v-20.95H941.91z M984.82,412.95
			c3.61,0,6.6,3.13,6.6,7.14c0,3.94-2.99,7.07-6.6,7.07c-3.6,0-6.6-3.13-6.6-7.07C978.23,416.08,981.22,412.95,984.82,412.95z"/>
		<path class="st0" d="M941.98,433.96l13.4-1.09v0.07c-12.11,9.79-14.28,12.38-14.28,14.28c0,2.04,1.36,4.01,4.22,4.01
			c2.52,0,4.69-1.9,6.12-5.37l2.24-5.44c1.63-3.95,4.62-7.89,11.49-7.89c6.12,0,10.95,5.51,10.95,13.06c0,3.74-0.48,9.04-0.88,12.38
			l-11.77,0.95v-0.07c9.93-9.32,12.11-11.56,12.11-13.26c0-1.84-1.43-3.81-3.88-3.81c-3.2,0-4.76,2.99-6.12,6.26l-1.77,4.28
			c-2.11,5.03-5.92,8.64-11.83,8.64c-6.39,0-11.43-4.76-11.43-13.81C940.55,442.6,941.23,437.43,941.98,433.96z"/>
		<path class="st0" d="M941.91,462.05v2.86h24.69l5.51-2.79h0.07l4.49,18.02h-8.5c4.49,2.31,7.96,6.6,7.96,11.43
			c0,2.31-0.48,8.91-8.43,10.2c4.76,2.24,8.43,6.66,8.43,11.63c0,2.58-0.61,10.41-11.29,10.41h-22.92v2.86h-0.54v-20.74h0.54v2.65
			h23.12c3.4,0,4.9-1.16,4.9-2.92c0-1.29-0.88-2.72-2.99-3.67h-25.03v2.65h-0.54v-20.54h0.54v2.65h23.12c3.4,0,4.9-1.16,4.9-2.92
			c0-1.22-0.82-2.58-2.79-3.67h-25.23v2.65h-0.54v-20.74H941.91z"/>
	</g>
	<g>
		<path class="st0" d="M936.92,363.11v-2.86h-39.04l-5.51,2.79h-0.07l-4.49-17.95h6.26c-3.2-2.24-5.71-5.51-5.71-10
			c0-5.58,3.94-13.26,17.41-13.26c14.49,0,18.16,8.84,18.16,14.15c0,3.6-1.43,6.66-4.22,9.04h17.21v-4.01h0.54v22.1H936.92z
			 M906.11,337.4c-8.98,0-13.19,0.75-13.19,4.15c0,1.63,0.88,2.79,1.84,3.47h24.28c0.95-0.95,1.7-2.11,1.7-3.47
			C920.73,338.49,916.85,337.4,906.11,337.4z"/>
		<path class="st0" d="M906.24,319.72c-12.65,0-17.89-8.3-17.89-19.93c0-11.7,5.24-19.86,17.89-19.86
			c12.51,0,17.68,8.23,17.68,19.86C923.93,311.42,918.76,319.72,906.24,319.72z M906.24,295.98c-13.6,0-17.34,1.16-17.34,3.81
			c0,2.72,3.74,3.88,17.34,3.88c13.53,0,17.14-1.16,17.14-3.88C923.38,297.14,919.78,295.98,906.24,295.98z"/>
		<path class="st0" d="M936.92,279.25v-2.86h-39.04l-5.51,2.79h-0.07l-4.49-17.95h6.26c-3.2-2.24-5.71-5.51-5.71-10
			c0-5.58,3.94-13.26,17.41-13.26c14.49,0,18.16,8.84,18.16,14.15c0,3.6-1.43,6.66-4.22,9.04h17.21v-4.01h0.54v22.1H936.92z
			 M906.11,253.55c-8.98,0-13.19,0.75-13.19,4.15c0,1.63,0.88,2.79,1.84,3.47h24.28c0.95-0.95,1.7-2.11,1.7-3.47
			C920.73,254.64,916.85,253.55,906.11,253.55z"/>
	</g>
</g>
<g>
	<path class="st0" d="M491.65,143.59v-2.86h-40.94l-5.92,2.79h-0.07l-3.2-18.02h50.12v-2.86h0.54v20.95H491.65z M489.34,349.11
		l3.26,15.03v0.07h-41.89L444.8,367h-0.07l-3.2-18.02h21.42c-3.13-2.24-5.51-5.51-5.51-9.86c0-5.58,3.94-13.26,17.41-13.26
		c14.49,0,18.16,8.84,18.16,14.15C493.01,343.67,491.65,346.67,489.34,349.11z M491.65,513.48v-2.86h-32.71v2.79h-0.54v-2.79h-0.41
		c-14.35,0-16.05-11.63-16.05-18.29c0-3.06,0.41-7.21,0.82-10.41l-1.22-9.38h50.12v-2.86h0.54v20.95h-0.54v-2.86h-45.9
		c-2.86,2.72-3.4,3.6-3.4,4.49c0,1.36,0.34,3.13,7.75,3.13h8.3v-5.44h0.54v5.44h32.71v-2.86h0.54v20.95H491.65z M483.7,165.57
		h-24.69v3.81h-0.61v-3.81h-2.65l-9.45-15.1v-0.14h12.11v-7.55h0.61v7.55h22.24c3.81,0,5.44-1.7,5.44-3.94
		c0-1.16-0.48-2.58-1.02-3.47l0.14-0.14c2.24,1.16,7.21,5.44,7.21,12.72C493.01,161.01,490.84,165.57,483.7,165.57z M491.65,211.41
		v-2.86h-24.69l-5.51,2.79h-0.07l-4.49-18.02h7.68c-4.15-2.52-7.14-6.73-7.14-11.49c0-2.92,0.61-10.81,11.29-10.81h22.92v-2.86h0.54
		v20.95h-0.54v-2.86h-23.19c-3.54,0-5.1,1.77-5.1,3.74c0,1.29,0.48,2.31,2.04,3.33h26.25v-2.86h0.54v20.95H491.65z M491.65,431.19
		v-2.86h-24.69l-5.51,2.79h-0.07l-4.49-18.02h8.5c-4.49-2.31-7.96-6.6-7.96-11.43c0-2.31,0.48-8.91,8.43-10.2
		c-4.76-2.24-8.43-6.66-8.43-11.63c0-2.58,0.61-10.41,11.29-10.41h22.92v-2.86h0.54v20.74h-0.54v-2.65h-23.12
		c-3.4,0-4.9,1.16-4.9,2.92c0,1.29,0.88,2.72,2.99,3.67h25.03v-2.65h0.54v20.54h-0.54v-2.65h-23.12c-3.4,0-4.9,1.16-4.9,2.92
		c0,1.22,0.82,2.58,2.79,3.67h25.23v-2.65h0.54v20.74H491.65z M484.24,249.35c-8.43,0-12.79-9.32-14.35-19.93h-9.79
		c-1.16,0-1.97,0.61-1.97,1.5c0,1.09,2.65,2.99,13.06,10.27v0.07l-9.93,6.32c-1.22-3.81-3.81-13.33-3.81-19.38
		c0-7.89,3.13-13.53,11.43-13.53h16.25c1.36,0,2.04-0.34,4.62-2.79h0.07l3.13,17.48h-5.85c3.4,2.04,5.92,5.78,5.92,10.54
		C493.01,244.18,490.91,249.35,484.24,249.35z M475.33,323.79c-12.65,0-17.89-8.3-17.89-19.93c0-11.7,5.24-19.86,17.89-19.86
		c12.51,0,17.68,8.23,17.68,19.86C493.01,315.49,487.85,323.79,475.33,323.79z M484.24,469.13c-8.43,0-12.79-9.32-14.35-19.93h-9.79
		c-1.16,0-1.97,0.61-1.97,1.5c0,1.09,2.65,2.99,13.06,10.27v0.07l-9.93,6.32c-1.22-3.81-3.81-13.33-3.81-19.38
		c0-7.89,3.13-13.53,11.43-13.53h16.25c1.36,0,2.04-0.34,4.62-2.79h0.07l3.13,17.48h-5.85c3.4,2.04,5.92,5.78,5.92,10.54
		C493.01,463.96,490.91,469.13,484.24,469.13z M475.33,300.05c-13.6,0-17.34,1.16-17.34,3.81c0,2.72,3.74,3.88,17.34,3.88
		c13.53,0,17.14-1.16,17.14-3.88C492.47,301.21,488.87,300.05,475.33,300.05z M506.34,118.86l-12.79,0.54v-0.07
		c5.3-6.05,6.6-7.82,6.6-9.79c0-0.68-0.34-1.63-1.29-2.04l-4.76-2.24l-35.16,15.71v2.79h-0.54v-21.97h0.54v2.99l17.89-7.68
		l-17.89-8.36v7.41h-0.54V85.2h0.54v2.92l40.94,19.25c5.64,2.65,6.8,6.39,6.8,9.11C506.68,117.7,506.48,118.45,506.34,118.86z
		 M506.34,281.99l-12.79,0.54v-0.07c5.3-6.05,6.6-7.82,6.6-9.79c0-0.68-0.34-1.63-1.29-2.04l-4.76-2.24l-35.16,15.71v2.79h-0.54
		v-21.97h0.54v2.99l17.89-7.68l-17.89-8.36v7.41h-0.54v-10.95h0.54v2.92l40.94,19.25c5.64,2.65,6.8,6.39,6.8,9.11
		C506.68,280.84,506.48,281.59,506.34,281.99z M475.2,341.43c-8.98,0-13.19,0.75-13.19,4.15c0,1.56,0.95,2.65,1.7,3.4h25.09
		c0.48-0.95,1.02-2.11,1.02-3.4C489.82,342.52,485.94,341.43,475.2,341.43z M486.35,229.42h-15.98c2.86,3.2,7.21,5.64,11.43,5.64
		c4.22,0,5.78-1.84,5.78-3.2C487.57,230.92,487.1,229.9,486.35,229.42z M486.35,449.2h-15.98c2.86,3.2,7.21,5.64,11.43,5.64
		c4.22,0,5.78-1.84,5.78-3.2C487.57,450.7,487.1,449.68,486.35,449.2z"/>
	<g>
		<path class="st0" d="M528.95,85.2v91.96h-0.88V85.2H528.95z"/>
		<path class="st0" d="M511,178.86v2.86h24.89l5.3-2.79h0.07l4.49,18.02h-7.34c3.06,1.63,6.8,4.28,6.8,9.11
			c0,1.63-0.48,2.92-0.88,3.81l-12.85-2.24c6.53-9.59,6.67-9.79,6.67-10.07c0-0.2-0.2-0.41-0.54-0.61H511v4.49h-0.54v-22.58H511z"/>
		<path class="st0" d="M527.46,210.15c12.79,0,17.75,8.5,17.75,17.68c0,10.27-6.12,16.39-15.44,16.39h-0.07v-20.2
			c-8.02,0.48-10.61,5.78-10.61,9.66c0,3.95,1.43,8.16,5.1,10.54l-0.07,0.14c-7.21-1.09-14.49-5.78-14.49-16.05
			C509.64,218.65,515.35,210.15,527.46,210.15z M530.25,230.75c9.66,0,14.42-0.68,14.42-3.26c0-2.92-4.9-3.47-14.42-3.47V230.75z"/>
		<path class="st0" d="M511.07,248.3l13.4-1.09v0.07c-12.1,9.79-14.28,12.38-14.28,14.28c0,2.04,1.36,4.01,4.22,4.01
			c2.52,0,4.69-1.9,6.12-5.37l2.24-5.44c1.63-3.95,4.62-7.89,11.49-7.89c6.12,0,10.95,5.51,10.95,13.06c0,3.74-0.48,9.04-0.88,12.38
			l-11.77,0.95v-0.07c9.93-9.32,12.11-11.56,12.11-13.26c0-1.84-1.43-3.81-3.88-3.81c-3.2,0-4.76,2.99-6.12,6.26l-1.77,4.28
			c-2.11,5.03-5.92,8.64-11.83,8.64c-6.39,0-11.43-4.76-11.43-13.81C509.64,256.94,510.32,251.77,511.07,248.3z"/>
		<path class="st0" d="M518.96,279.04h24.69v-3.81h0.61v3.81h2.65l9.45,15.1v0.14h-12.11v7.55h-0.61v-7.55h-22.24
			c-3.81,0-5.44,1.7-5.44,3.94c0,1.16,0.48,2.58,1.02,3.47l-0.14,0.14c-2.24-1.16-7.21-5.44-7.21-12.72
			C509.64,283.6,511.82,279.04,518.96,279.04z"/>
		<path class="st0" d="M511,301.55v2.86h24.89l5.3-2.79h0.07l4.49,18.02h-7.34c3.06,1.63,6.8,4.28,6.8,9.11
			c0,1.63-0.48,2.92-0.88,3.81l-12.85-2.24c6.53-9.59,6.67-9.79,6.67-10.07c0-0.2-0.2-0.41-0.54-0.61H511v4.49h-0.54v-22.58H511z"/>
		<path class="st0" d="M518.41,332.77c8.43,0,12.79,9.32,14.35,19.93h9.79c1.16,0,1.97-0.61,1.97-1.5c0-1.09-2.65-2.99-13.06-10.27
			v-0.07l9.93-6.33c1.22,3.81,3.81,13.33,3.81,19.38c0,7.89-3.13,13.53-11.42,13.53h-16.25c-1.36,0-2.04,0.34-4.62,2.79h-0.07
			l-3.13-17.48h5.85c-3.4-2.04-5.92-5.78-5.92-10.54C509.64,337.94,511.75,332.77,518.41,332.77z M516.31,352.69h15.98
			c-2.86-3.2-7.21-5.64-11.43-5.64c-4.22,0-5.78,1.84-5.78,3.2C515.08,351.2,515.56,352.22,516.31,352.69z"/>
		<path class="st0" d="M511,370.72v2.86h24.82l5.37-2.79h0.07l4.49,18.02H511v2.86h-0.54v-20.95H511z M553.91,373.57
			c3.6,0,6.6,3.13,6.6,7.14c0,3.94-2.99,7.07-6.6,7.07c-3.6,0-6.6-3.13-6.6-7.07C547.32,376.7,550.31,373.57,553.91,373.57z"/>
		<path class="st0" d="M511,392.75v2.86h24.69l5.51-2.79h0.07l4.49,18.02h-7.68c4.15,2.52,7.14,6.73,7.14,11.49
			c0,2.92-0.61,10.81-11.29,10.81H511V436h-0.54v-20.95H511v2.86h23.19c3.54,0,5.1-1.77,5.1-3.74c0-1.29-0.48-2.31-2.04-3.33H511
			v2.86h-0.54v-20.95H511z"/>
		<path class="st0" d="M527.46,436.62c12.79,0,17.75,8.5,17.75,17.68c0,10.27-6.12,16.39-15.44,16.39h-0.07v-20.2
			c-8.02,0.48-10.61,5.78-10.61,9.66c0,3.95,1.43,8.16,5.1,10.54l-0.07,0.14c-7.21-1.09-14.49-5.78-14.49-16.05
			C509.64,445.12,515.35,436.62,527.46,436.62z M530.25,457.22c9.66,0,14.42-0.68,14.42-3.26c0-2.92-4.9-3.47-14.42-3.47V457.22z"/>
		<path class="st0" d="M511,513.94h-0.54v-18.02h4.83c-3.2-2.24-5.64-5.51-5.64-9.93c0-5.58,3.94-13.26,17.41-13.26
			c14.49,0,18.16,8.84,18.16,14.14c0,3.61-1.43,6.6-4.15,8.98h10.88l5.92-2.79h0.07l3.2,18.02H511V513.94z M540.38,495.85
			c0.95-0.95,1.63-2.11,1.63-3.4c0-3.06-3.88-4.15-14.62-4.15c-8.98,0-13.19,0.75-13.19,4.15c0,1.56,0.95,2.65,1.7,3.4H540.38z"/>
	</g>
</g>
</svg>
