<svg id="Layer_1" data-name="Layer 1" xmlns="http://www.w3.org/2000/svg" viewBox="0 0 690.02 1000"><defs><style>.cls-1{fill:#fff;}</style></defs><title>9</title><path class="cls-1" d="M115.31,997.52C226.91,962.8,336.64,907,407.94,838.81c55.79-53.32,89.89-179.17,93.61-337.88-35.34,47.74-97.33,90.52-158.71,102.3a323.17,323.17,0,0,1-59.52,5.57C129,608.8,0,492.87,0,339.74,0,228.15,45.88,132.67,130.81,67.58,187.23,24.18,257.9,0,328.58,0,535,0,690,163.67,690,381.28,690,540.61,608.18,675.76,409.18,845c-84.94,72.54-182.27,120.27-293.25,155ZM215.75,66.34C187.85,114.07,186,259.77,186,339.74c0,146.31,58.28,260.38,139.49,260.38,5.58,0,10.54,0,16.12-1.23,59.52-11.16,122.75-52.08,160.57-104.16V311.22c1.24-8.68,8.06-13,19.22-8.68L677,360.2l6.2-6.82C677,161.81,526.35,3.72,328.58,3.72,277.74,3.72,239.93,24.8,215.75,66.34Z"/></svg>