<svg id="Layer_1" data-name="Layer 1" xmlns="http://www.w3.org/2000/svg" viewBox="0 0 1000 1000"><defs><style>.cls-1{fill:#fff;}</style></defs><title>SPNT_Logo_White</title><path class="cls-1" d="M1000,999.75H0V-.25H1000ZM42.56,957.17H957.41V42.33H42.56Z" transform="translate(0.01 0.25)"/><path class="cls-1" d="M173,281.5l37.34-18.16c8.69,15.86,24,23,40.66,23,14.83,0,25.83-5.37,30.18-12.53v-11c-2.56-4.09-6.65-7.42-14.32-9.72-12.28-4.09-30.69-3.07-48.08-9-20.2-6.9-33.25-18.41-40.15-32V175.11c10.23-20.71,36.82-38.36,72.12-38.36,37.33,0,64.44,17.9,75.69,43.22l-37.59,18.16c-8.18-15.09-22.51-22-37.85-22-14.06,0-24.29,5.37-28.13,12.53v9.2c2.3,4.1,6.39,7.93,14.07,10,12,3.32,30.68,2.81,48.07,9,19.95,6.9,33.25,18.41,40.41,32v38.62c-10.49,20.71-38.36,38.36-73.91,38.36C212.89,325.74,184,307.58,173,281.5Zm243.19.51V141.1h43.47V265.64c4.35,9.46,14.58,19.95,35.55,19.95,20.72,0,31.2-10.49,35.29-19.95V141.1h43.73V282c-9.71,24.29-39.38,43.73-79,43.73C455.31,325.74,425.13,306.56,416.18,282ZM817,180v45.78c-7.68,21.22-33.76,38.87-64.19,38.87H712.9v57H669.43V141.1H752.8C783.23,141.1,809.31,158.75,817,180Zm-43.74,12.79c-3.58-7.42-13-12.79-25.06-12.79H712.9v45.52h35.29c12,0,21.48-5.62,25.06-12.53ZM226.82,452.57v29.66h81.33v39.38H226.82V552.3h89.26v40.41H183.35V412.16H316.08v40.41Zm346,132.72v7.42H528.58l-40.15-61.38H461.06v61.38H417.59V412.16H500.7c30.43,0,56.52,17.65,64.19,38.87v41.43C560,505,548,517,532.41,524.17ZM461.06,494.76h35c12,0,21.48-5.62,25.06-12.78V463.82c-3.58-7.42-13-12.79-25.06-12.79h-35ZM817,412.16V592.71H773L698.58,475.58V592.71h-42.2V412.16h48.08l70.07,109.71V412.16ZM344.72,851.24v7.41H301.24l-11.51-31.71h-80.3l-11.76,31.71h-43v-7.41l67-173.13h56.52Zm-69.56-63.68-25.57-69.82-25.83,69.82Zm141,31.46V678.11h43.47V802.65c4.35,9.46,14.58,20,35.55,20,20.72,0,31.2-10.49,35.29-20V678.11h43.73V819c-9.71,24.29-39.38,43.73-79,43.73C455.31,862.75,425.13,843.57,416.18,819ZM817,718.51H759.7V858.65H716V718.51H658.18v-40.4H817Z" transform="translate(0.01 0.25)"/></svg>